<?xml version="1.0" encoding="UTF-8" standalone="no"?>
<!-- Generator: Adobe Illustrator 16.0.0, SVG Export Plug-In . SVG Version: 6.00 Build 0)  -->

<svg
   xmlns:dc="http://purl.org/dc/elements/1.1/"
   xmlns:cc="http://creativecommons.org/ns#"
   xmlns:rdf="http://www.w3.org/1999/02/22-rdf-syntax-ns#"
   xmlns:svg="http://www.w3.org/2000/svg"
   xmlns="http://www.w3.org/2000/svg"
   xmlns:sodipodi="http://sodipodi.sourceforge.net/DTD/sodipodi-0.dtd"
   xmlns:inkscape="http://www.inkscape.org/namespaces/inkscape"
   version="1.1"
   id="Layer_1"
   x="0px"
   y="0px"
   viewBox="0 0 48 48"
   enable-background="new 0 0 48 48"
   xml:space="preserve"
   inkscape:version="0.48.5 r10040"
   sodipodi:docname="playback-reset.svg"><metadata
     id="metadata3147"><rdf:RDF><cc:Work
         rdf:about=""><dc:format>image/svg+xml</dc:format><dc:type
           rdf:resource="http://purl.org/dc/dcmitype/StillImage" /></cc:Work></rdf:RDF></metadata><defs
     id="defs3145" /><sodipodi:namedview
     pagecolor="#ffffff"
     bordercolor="#666666"
     borderopacity="1"
     objecttolerance="10"
     gridtolerance="10"
     guidetolerance="10"
     inkscape:pageopacity="0"
     inkscape:pageshadow="2"
     inkscape:window-width="805"
     inkscape:window-height="627"
     id="namedview3143"
     showgrid="false"
     inkscape:zoom="4.9166667"
     inkscape:cx="24"
     inkscape:cy="24"
     inkscape:window-x="407"
     inkscape:window-y="0"
     inkscape:window-maximized="0"
     inkscape:current-layer="Layer_1" /><path
     d="M24.837,3.254c-8.45,0-15.708,5.181-18.91,12.567l-2.131-0.854c-0.505-0.203-1.082-0.081-1.461,0.308  c-0.38,0.39-0.489,0.969-0.275,1.468l3.39,7.922c0.141,0.327,0.404,0.587,0.736,0.719c0.331,0.133,0.701,0.129,1.028-0.012  l7.922-3.39c0.499-0.213,0.82-0.707,0.814-1.251c-0.007-0.543-0.34-1.029-0.844-1.231l-2.686-1.076  c2.162-4.813,6.905-8.17,12.416-8.17c7.542,0,13.678,6.272,13.678,13.983s-6.137,13.984-13.678,13.984  c-3.349,0-6.413-1.241-8.789-3.294c-1.387-1.199-3.452-1.141-4.743,0.161c-0.017,0.017-0.033,0.033-0.05,0.05  c-1.423,1.432-1.32,3.766,0.207,5.084c3.607,3.115,8.277,4.999,13.375,4.999c11.401,0,20.678-9.413,20.678-20.984  C45.516,12.667,36.239,3.254,24.837,3.254z"
     id="path3141"
     style="fill:#ffffff" /></svg>